<svg viewBox="0 0 37 37" fill="currentColor" xmlns="http://www.w3.org/2000/svg">
<path d="M18.5 3.145C10.0208 3.145 3.08334 10.0671 3.08334 18.5925C3.08334 26.3008 8.72584 32.6988 16.095 33.855V23.0633H12.1792V18.5925H16.095V15.1854C16.095 11.3158 18.3921 9.18834 21.9225 9.18834C23.6029 9.18834 25.3604 9.48125 25.3604 9.48125V13.2892H23.4179C21.5063 13.2892 20.905 14.4763 20.905 15.6942V18.5925H25.1908L24.4971 23.0633H20.905V33.855C24.5379 33.2813 27.8459 31.4277 30.232 28.6288C32.6181 25.83 33.9249 22.2704 33.9167 18.5925C33.9167 10.0671 26.9792 3.145 18.5 3.145Z" />
</svg>
