<svg  viewBox="0 0 37 37" fill="currentColor" xmlns="http://www.w3.org/2000/svg">
<path d="M18.5 3.08334C16.4755 3.08334 14.4707 3.4821 12.6003 4.25686C10.7299 5.03162 9.03035 6.1672 7.59878 7.59877C4.70759 10.49 3.08334 14.4112 3.08334 18.5C3.08334 25.3142 7.50793 31.0954 13.6283 33.1458C14.3992 33.2692 14.6458 32.7913 14.6458 32.375C14.6458 32.0204 14.6458 31.0492 14.6458 29.7696C10.3754 30.6946 9.46584 27.7038 9.46584 27.7038C8.75668 25.9154 7.75459 25.4375 7.75459 25.4375C6.35168 24.4817 7.86251 24.5125 7.86251 24.5125C9.40418 24.6204 10.2213 26.1004 10.2213 26.1004C11.5625 28.4438 13.8288 27.75 14.7075 27.38C14.8463 26.3779 15.2471 25.6996 15.6788 25.3142C12.2563 24.9288 8.66418 23.6029 8.66418 17.7292C8.66418 16.0179 9.25001 14.6458 10.2521 13.5513C10.0979 13.1658 9.55834 11.5625 10.4063 9.48125C10.4063 9.48125 11.7013 9.065 14.6458 11.0538C15.8638 10.7146 17.1896 10.545 18.5 10.545C19.8104 10.545 21.1363 10.7146 22.3542 11.0538C25.2988 9.065 26.5938 9.48125 26.5938 9.48125C27.4417 11.5625 26.9021 13.1658 26.7479 13.5513C27.75 14.6458 28.3358 16.0179 28.3358 17.7292C28.3358 23.6183 24.7283 24.9133 21.2904 25.2988C21.8454 25.7767 22.3542 26.7171 22.3542 28.1508C22.3542 30.2167 22.3542 31.8817 22.3542 32.375C22.3542 32.7913 22.6008 33.2846 23.3871 33.1458C29.5075 31.08 33.9167 25.3142 33.9167 18.5C33.9167 16.4755 33.5179 14.4707 32.7432 12.6003C31.9684 10.7299 30.8328 9.03034 29.4012 7.59877C27.9697 6.1672 26.2702 5.03162 24.3997 4.25686C22.5293 3.4821 20.5246 3.08334 18.5 3.08334Z" />
</svg>
