<svg viewBox="0 0 37 37" fill="currentColor" xmlns="http://www.w3.org/2000/svg">
<path d="M11.9417 3.08334H24.8917C29.825 3.08334 33.8333 7.09168 33.8333 12.025V24.975C33.8333 27.3465 32.8913 29.6208 31.2144 31.2977C29.5375 32.9746 27.2631 33.9167 24.8917 33.9167H11.9417C7.00833 33.9167 3 29.9083 3 24.975V12.025C3 9.65353 3.94207 7.37919 5.61895 5.7023C7.29584 4.02541 9.57019 3.08334 11.9417 3.08334ZM11.6333 6.16668C10.1614 6.16668 8.74972 6.75141 7.70889 7.79223C6.66806 8.83306 6.08333 10.2447 6.08333 11.7167V25.2833C6.08333 28.3513 8.56542 30.8333 11.6333 30.8333H25.2C26.672 30.8333 28.0836 30.2486 29.1244 29.2078C30.1653 28.167 30.75 26.7553 30.75 25.2833V11.7167C30.75 8.64876 28.2679 6.16668 25.2 6.16668H11.6333ZM26.5104 8.47918C27.0215 8.47918 27.5117 8.68221 27.8731 9.04361C28.2345 9.405 28.4375 9.89517 28.4375 10.4063C28.4375 10.9174 28.2345 11.4075 27.8731 11.7689C27.5117 12.1303 27.0215 12.3333 26.5104 12.3333C25.9993 12.3333 25.5092 12.1303 25.1478 11.7689C24.7864 11.4075 24.5833 10.9174 24.5833 10.4063C24.5833 9.89517 24.7864 9.405 25.1478 9.04361C25.5092 8.68221 25.9993 8.47918 26.5104 8.47918ZM18.4167 10.7917C20.461 10.7917 22.4217 11.6038 23.8673 13.0494C25.3129 14.495 26.125 16.4556 26.125 18.5C26.125 20.5444 25.3129 22.505 23.8673 23.9506C22.4217 25.3962 20.461 26.2083 18.4167 26.2083C16.3723 26.2083 14.4116 25.3962 12.9661 23.9506C11.5205 22.505 10.7083 20.5444 10.7083 18.5C10.7083 16.4556 11.5205 14.495 12.9661 13.0494C14.4116 11.6038 16.3723 10.7917 18.4167 10.7917ZM18.4167 13.875C17.19 13.875 16.0137 14.3623 15.1463 15.2296C14.2789 16.097 13.7917 17.2734 13.7917 18.5C13.7917 19.7266 14.2789 20.903 15.1463 21.7704C16.0137 22.6377 17.19 23.125 18.4167 23.125C19.6433 23.125 20.8197 22.6377 21.687 21.7704C22.5544 20.903 23.0417 19.7266 23.0417 18.5C23.0417 17.2734 22.5544 16.097 21.687 15.2296C20.8197 14.3623 19.6433 13.875 18.4167 13.875Z" />
</svg>
