<svg xmlns="http://www.w3.org/2000/svg" fill="currentColor"><path d="M16.147 5.154l1.09 2.05a6.15 6.15 0 0 0 .824 1.024c.913.913 1.782 1.87 2.56 2.895 1.848 2.427 3.095 5.122 3.986 8.04.534 1.782.824 3.608.846 5.456.09 5.523-1.804 10.266-5.634 14.208a16.3 16.3 0 0 1-2.004 1.715c-.38 0-.557-.3-.713-.557-.3-.5-.468-1.047-.557-1.603-.134-.668-.223-1.336-.178-2.027v-.312c-.022-.067-.356-30.732-.223-30.888z" /><path d="M16.147 5.088c-.045-.09-.09-.022-.134.022.022.445-.134.846-.38 1.225-.267.38-.624.668-.98.98-1.982 1.715-3.54 3.786-4.788 6.102-1.648 3.118-2.516 6.458-2.76 9.977-.11 1.27.4 5.746.802 7.037 1.09 3.43 3.05 6.302 5.6 8.796.624.6 1.292 1.158 1.982 1.692.2 0 .223-.178.267-.312a6.11 6.11 0 0 0 .2-.869c.2-1.113.312-2.227.445-3.34l-.245-31.31z" /><path d="M17.24 41.9c.045-.512.3-.935.557-1.358-.267-.11-.468-.334-.624-.58-.134-.223-.245-.5-.334-.735-.312-.935-.38-1.915-.468-2.873v-.58c-.11.09-.134.846-.134.958-.067 1.024-.2 2.027-.4 3.006-.067.4-.11.802-.356 1.158 0 .045 0 .09.022.156.4 1.18.512 2.383.58 3.608v.445c0 .534-.022.423.423.6.178.067.38.09.557.223.134 0 .156-.11.156-.2l-.067-.735v-2.05c-.022-.356.045-.713.09-1.047z"/></svg>